M48
; DRILL file {KiCad (5.1.4)-1} date 9/17/2021 5:56:16 PM
; FORMAT={-:-/ absolute / inch / decimal}
; #@! TF.CreationDate,2021-09-17T17:56:16-10:00
; #@! TF.GenerationSoftware,Kicad,Pcbnew,(5.1.4)-1
; #@! TF.FileFunction,Plated,1,2,PTH
FMAT,2
INCH
T1C0.0430
T2C0.0579
%
G90
G05
T1
X2.1062Y-1.2
X2.1062Y-1.8
X2.2062Y-1.2
X2.2062Y-1.8
X2.3062Y-1.2
X2.3062Y-1.8
X2.4062Y-1.2
X2.4062Y-1.8
X2.5063Y-1.2
X2.5063Y-1.8
X2.6062Y-1.2
X2.6062Y-1.8
X2.7062Y-1.2
X2.7062Y-1.8
X2.8062Y-1.2
X2.8062Y-1.8
X2.9062Y-1.2
X2.9062Y-1.8
X3.0063Y-1.2
X3.0063Y-1.8
X3.1062Y-1.2
X3.1062Y-1.8
X3.2062Y-1.2
X3.2062Y-1.8
T2
X9.9313Y-3.55
X10.1813Y-3.65
X7.3728Y-2.2956
X7.6343Y-2.3598
X8.5951Y-1.3685
X8.8514Y-1.4508
X5.3487Y-3.1148
X5.5823Y-3.2486
X8.1155Y-2.1912
X8.377Y-2.2554
X4.7686Y-4.548
X5.0022Y-4.6818
X2.15Y-4.3
X2.4Y-4.4
X3.8633Y-2.906
X4.0969Y-3.0399
X6.1544Y-1.7094
X6.4159Y-1.7737
X3.7589Y-3.6487
X3.9926Y-3.7826
X6.8971Y-1.6051
X7.1586Y-1.6693
X9.9313Y-4.3
X10.1813Y-4.4
X9.0738Y-2.8387
X9.3302Y-2.921
X4.5016Y-3.7531
X4.7353Y-3.8869
X8.2199Y-2.9339
X8.4814Y-2.9981
X5.2443Y-3.8575
X5.478Y-3.9913
X5.4531Y-2.3721
X5.6867Y-2.5059
X2.15Y-2.8
X2.4Y-2.9
X3.0079Y-2.8248
X3.2504Y-2.942
X9.5563Y-1.3
X9.8063Y-1.4
X5.1399Y-4.6002
X5.3736Y-4.734
X6.9433Y-4.628
X7.2047Y-4.6923
X2.9556Y-3.5729
X3.198Y-3.6901
X4.7104Y-2.2677
X4.944Y-2.4015
X7.4772Y-3.0383
X7.7387Y-3.1025
X3.0603Y-2.0766
X3.3027Y-2.1938
X4.3972Y-4.4958
X4.6309Y-4.6297
X8.4287Y-4.4193
X8.6901Y-4.4835
X3.6545Y-4.3915
X3.8882Y-4.5253
X6.8389Y-3.8853
X7.1004Y-3.9496
X8.3243Y-3.6766
X8.5858Y-3.7408
X9.1261Y-3.5869
X9.3825Y-3.6692
X2.15Y-3.55
X2.4Y-3.65
X6.6301Y-2.3999
X6.8916Y-2.4642
X9.9313Y-2.05
X10.1813Y-2.15
X4.606Y-3.0104
X4.8396Y-3.1442
X9.0215Y-2.0905
X9.2778Y-2.1729
X7.3146Y-4.5759
X7.5761Y-4.6401
X7.6398Y-1.5007
X7.9013Y-1.5649
X2.15Y-2.05
X2.4Y-2.15
X6.7345Y-3.1426
X6.996Y-3.2069
X7.686Y-4.5237
X7.9474Y-4.5879
X7.5816Y-3.781
X7.8431Y-3.8452
X9.9313Y-2.8
X10.1813Y-2.9
X3.9677Y-2.1633
X4.2013Y-2.2972
T0
M30
