G04 #@! TF.GenerationSoftware,KiCad,Pcbnew,(5.1.4)-1*
G04 #@! TF.CreationDate,2021-09-16T18:52:32-10:00*
G04 #@! TF.ProjectId,oya38split,6f796133-3873-4706-9c69-742e6b696361,rev?*
G04 #@! TF.SameCoordinates,Original*
G04 #@! TF.FileFunction,Profile,NP*
%FSLAX46Y46*%
G04 Gerber Fmt 4.6, Leading zero omitted, Abs format (unit mm)*
G04 Created by KiCad (PCBNEW (5.1.4)-1) date 2021-09-16 18:52:32*
%MOMM*%
%LPD*%
G04 APERTURE LIST*
%ADD10C,0.050000*%
G04 APERTURE END LIST*
D10*
X194775000Y-134937500D02*
G75*
G03X194775000Y-134937500I-1100000J0D01*
G01*
X119368750Y-134937500D02*
G75*
G03X119368750Y-134937500I-1100000J0D01*
G01*
X194775000Y-24606250D02*
G75*
G03X194775000Y-24606250I-1100000J0D01*
G01*
X119368750Y-24606250D02*
G75*
G03X119368750Y-24606250I-1100000J0D01*
G01*
X269387500Y-24606250D02*
G75*
G03X269387500Y-24606250I-1100000J0D01*
G01*
X269387500Y-127793750D02*
G75*
G03X269387500Y-127793750I-1100000J0D01*
G01*
X44756250Y-127793750D02*
G75*
G03X44756250Y-127793750I-1100000J0D01*
G01*
X44756250Y-24606250D02*
G75*
G03X44756250Y-24606250I-1100000J0D01*
G01*
X275431250Y-28575000D02*
X275431250Y-123825000D01*
X36512500Y-28575000D02*
X36512500Y-123825000D01*
X275431250Y-123825000D02*
G75*
G02X264318750Y-134937500I-11112500J0D01*
G01*
X264318750Y-17462500D02*
G75*
G02X275431250Y-28575000I0J-11112500D01*
G01*
X83875595Y-136146093D02*
X66675000Y-134937500D01*
X228068155Y-136146093D02*
X171474335Y-144099835D01*
X140469415Y-144099835D02*
X83875595Y-136146093D01*
X264318750Y-134937500D02*
X245268750Y-134937500D01*
X245268750Y-134937500D02*
X228068155Y-136146093D01*
X36512500Y-28575000D02*
G75*
G02X47625000Y-17462500I11112500J0D01*
G01*
X47625000Y-134937500D02*
G75*
G02X36512500Y-123825000I0J11112500D01*
G01*
X47625000Y-134937500D02*
X66675000Y-134937500D01*
X171474335Y-144099835D02*
X140469415Y-144099835D01*
X264318750Y-17462500D02*
X47625000Y-17462500D01*
M02*
