M48
; DRILL file {KiCad (5.1.4)-1} date 9/15/2021 4:56:25 AM
; FORMAT={-:-/ absolute / inch / decimal}
; #@! TF.CreationDate,2021-09-15T04:56:25-10:00
; #@! TF.GenerationSoftware,Kicad,Pcbnew,(5.1.4)-1
; #@! TF.FileFunction,NonPlated,1,2,NPTH
FMAT,2
INCH
T1C0.0689
T2C0.1200
T3C0.1570
%
G90
G05
T1
X8.9357Y-2.297
X9.3347Y-2.2691
X5.0131Y-4.7843
X5.4092Y-4.84
X2.8419Y-3.7655
X3.2409Y-3.7934
X6.0905Y-1.9135
X6.4866Y-1.8578
X9.8312Y-3.75
X10.2312Y-3.75
X4.6417Y-4.7322
X5.0378Y-4.7878
X8.2531Y-3.8886
X8.6492Y-3.8329
X2.05Y-3.75
X2.45Y-3.75
X7.3016Y-2.5075
X7.6977Y-2.4519
X6.6633Y-3.3546
X7.0594Y-3.2989
X7.5759Y-1.7047
X7.972Y-1.649
X3.6321Y-3.8329
X4.0282Y-3.8886
X8.3575Y-4.6313
X8.7536Y-4.5756
X7.5104Y-3.9929
X7.9065Y-3.9373
X8.0443Y-2.4032
X8.4404Y-2.3475
X6.5589Y-2.6119
X6.955Y-2.5562
X8.988Y-3.0452
X9.387Y-3.0173
X7.6148Y-4.7356
X8.0109Y-4.68
X6.7677Y-4.0973
X7.1638Y-4.0416
X8.5192Y-1.5765
X8.9183Y-1.5485
X9.8312Y-2.25
X10.2312Y-2.25
X7.2434Y-4.7878
X7.6395Y-4.7322
X2.05Y-4.5
X2.45Y-4.5
X2.05Y-2.25
X2.45Y-2.25
X2.8942Y-3.0173
X3.2933Y-3.0452
X7.406Y-3.2502
X7.8021Y-3.1946
X5.1175Y-4.0416
X5.5136Y-4.0973
X4.3748Y-3.9373
X4.7709Y-3.9929
X4.5835Y-2.4519
X4.9796Y-2.5075
X9.0403Y-3.7934
X9.4393Y-3.7655
X3.8408Y-2.3475
X4.2369Y-2.4032
X2.05Y-3.0
X2.45Y-3.0
X9.8312Y-3.0
X10.2312Y-3.0
X9.8312Y-4.5
X10.2312Y-4.5
X4.4791Y-3.1946
X4.8752Y-3.2502
X9.4562Y-1.5
X9.8562Y-1.5
X3.7364Y-3.0902
X4.1325Y-3.1459
X3.5277Y-4.5756
X3.9238Y-4.6313
X2.9466Y-2.2691
X3.3456Y-2.297
X5.3262Y-2.5562
X5.7223Y-2.6119
X8.1487Y-3.1459
X8.5448Y-3.0902
X6.8721Y-4.84
X7.2682Y-4.7843
X5.2218Y-3.2989
X5.6179Y-3.3546
X6.8332Y-1.8091
X7.2293Y-1.7534
X4.2704Y-4.68
X4.6665Y-4.7356
T2
X4.3373Y-4.9671
X5.2657Y-5.0976
X7.0156Y-5.0976
X7.9439Y-4.9671
T3
X4.6772Y-3.2224
X9.6562Y-1.5
X3.9345Y-3.118
X3.7257Y-4.6034
X3.1461Y-2.2831
X5.5243Y-2.5841
X8.3468Y-3.118
X7.0701Y-4.8122
X5.4199Y-3.3268
X7.0312Y-1.7812
X4.4684Y-4.7078
X9.1352Y-2.2831
X5.2111Y-4.8122
X3.0414Y-3.7794
X6.2885Y-1.8856
X10.0312Y-3.75
X4.4208Y-4.3729
X4.8398Y-4.76
X5.3492Y-4.5034
X8.4511Y-3.8607
X2.25Y-3.75
X7.4997Y-2.4797
X6.8614Y-3.3268
X7.774Y-1.6769
X3.8301Y-3.8607
X8.5555Y-4.6034
X7.7084Y-3.9651
X8.2424Y-2.3753
X6.757Y-2.5841
X9.1875Y-3.0312
X7.8128Y-4.7078
X6.9657Y-4.0695
X8.7188Y-1.5625
X10.0312Y-2.25
X6.932Y-4.5034
X7.4415Y-4.76
X7.8604Y-4.3729
X2.25Y-4.5
X2.25Y-2.25
X3.0938Y-3.0312
X7.6041Y-3.2224
X5.3155Y-4.0695
X4.5728Y-3.9651
X4.7816Y-2.4797
X9.2398Y-3.7794
X4.0389Y-2.3753
X2.25Y-3.0
X10.0312Y-3.0
X10.0312Y-4.5
T0
M30
