M48
; DRILL file {KiCad (5.1.4)-1} date 9/17/2021 3:57:44 AM
; FORMAT={-:-/ absolute / inch / decimal}
; #@! TF.CreationDate,2021-09-17T03:57:44-10:00
; #@! TF.GenerationSoftware,Kicad,Pcbnew,(5.1.4)-1
; #@! TF.FileFunction,NonPlated,1,2,NPTH
FMAT,2
INCH
T1C0.0689
T2C0.1200
T3C0.1570
%
G90
G05
T1
X6.7677Y-4.0973
X7.1638Y-4.0416
X6.0832Y-1.9214
X6.4793Y-1.8657
X9.8312Y-3.0
X10.2312Y-3.0
X6.8259Y-1.817
X7.222Y-1.7614
X7.3016Y-2.5075
X7.6977Y-2.4519
X9.8312Y-4.5
X10.2312Y-4.5
X2.05Y-4.5
X2.45Y-4.5
X2.05Y-3.0
X2.45Y-3.0
X9.8312Y-2.25
X10.2312Y-2.25
X8.0443Y-2.4032
X8.4404Y-2.3475
X7.2434Y-4.7878
X7.6395Y-4.7322
X8.988Y-3.0452
X9.387Y-3.0173
X8.9357Y-2.297
X9.3347Y-2.2691
X4.2704Y-4.68
X4.6665Y-4.7356
X7.6148Y-4.7356
X8.0109Y-4.68
X9.0403Y-3.7934
X9.4393Y-3.7655
X8.3575Y-4.6313
X8.7536Y-4.5756
X3.5277Y-4.5756
X3.9238Y-4.6313
X3.8408Y-2.3475
X4.2369Y-2.4032
X2.8419Y-3.7655
X3.2409Y-3.7934
X7.5686Y-1.7126
X7.9647Y-1.657
X6.6633Y-3.3546
X7.0594Y-3.2989
X4.6417Y-4.7322
X5.0378Y-4.7878
X5.0131Y-4.7843
X5.4092Y-4.84
X9.4562Y-1.5
X9.8562Y-1.5
X7.406Y-3.2502
X7.8021Y-3.1946
X4.4791Y-3.1946
X4.8752Y-3.2502
X4.3748Y-3.9373
X4.7709Y-3.9929
X8.5093Y-1.575
X8.9083Y-1.5471
X9.8312Y-3.75
X10.2312Y-3.75
X2.05Y-2.25
X2.45Y-2.25
X2.8942Y-3.0173
X3.2933Y-3.0452
X4.5835Y-2.4519
X4.9796Y-2.5075
X6.5589Y-2.6119
X6.955Y-2.5562
X8.1487Y-3.1459
X8.5448Y-3.0902
X2.9466Y-2.2691
X3.3456Y-2.297
X3.6321Y-3.8329
X4.0282Y-3.8886
X6.8721Y-4.84
X7.2682Y-4.7843
X7.5104Y-3.9929
X7.9065Y-3.9373
X5.3262Y-2.5562
X5.7223Y-2.6119
X2.05Y-3.75
X2.45Y-3.75
X3.7364Y-3.0902
X4.1325Y-3.1459
X5.1175Y-4.0416
X5.5136Y-4.0973
X8.2531Y-3.8886
X8.6492Y-3.8329
X5.2218Y-3.2989
X5.6179Y-3.3546
T2
X7.0156Y-5.0976
X7.9439Y-4.9671
X4.3373Y-4.9671
X5.2657Y-5.0976
T3
X2.25Y-3.75
X3.9345Y-3.118
X5.3155Y-4.0695
X8.4511Y-3.8607
X5.4199Y-3.3268
X6.9657Y-4.0695
X6.2812Y-1.8936
X10.0312Y-3.0
X7.0239Y-1.7892
X7.4997Y-2.4797
X10.0312Y-4.5
X2.25Y-4.5
X2.25Y-3.0
X10.0312Y-2.25
X8.2424Y-2.3753
X6.932Y-4.5034
X7.4415Y-4.76
X7.8604Y-4.3729
X9.1875Y-3.0312
X9.1352Y-2.2831
X4.4684Y-4.7078
X7.8128Y-4.7078
X9.2398Y-3.7794
X8.5555Y-4.6034
X3.7257Y-4.6034
X4.0389Y-2.3753
X3.0414Y-3.7794
X7.7667Y-1.6848
X6.8614Y-3.3268
X4.4208Y-4.3729
X4.8398Y-4.76
X5.3492Y-4.5034
X5.2111Y-4.8122
X9.6562Y-1.5
X7.6041Y-3.2224
X4.6772Y-3.2224
X4.5728Y-3.9651
X8.7088Y-1.5611
X10.0312Y-3.75
X2.25Y-2.25
X3.0938Y-3.0312
X4.7816Y-2.4797
X6.757Y-2.5841
X8.3468Y-3.118
X3.1461Y-2.2831
X3.8301Y-3.8607
X7.0701Y-4.8122
X7.7084Y-3.9651
X5.5243Y-2.5841
T0
M30
