G04 #@! TF.GenerationSoftware,KiCad,Pcbnew,(5.1.4)-1*
G04 #@! TF.CreationDate,2021-09-16T18:49:45-10:00*
G04 #@! TF.ProjectId,oya38split,6f796133-3873-4706-9c69-742e6b696361,rev?*
G04 #@! TF.SameCoordinates,Original*
G04 #@! TF.FileFunction,Profile,NP*
%FSLAX46Y46*%
G04 Gerber Fmt 4.6, Leading zero omitted, Abs format (unit mm)*
G04 Created by KiCad (PCBNEW (5.1.4)-1) date 2021-09-16 18:49:45*
%MOMM*%
%LPD*%
G04 APERTURE LIST*
%ADD10C,0.050000*%
G04 APERTURE END LIST*
D10*
X194775000Y-134937500D02*
G75*
G03X194775000Y-134937500I-1100000J0D01*
G01*
X119368750Y-134937500D02*
G75*
G03X119368750Y-134937500I-1100000J0D01*
G01*
X194775000Y-24606250D02*
G75*
G03X194775000Y-24606250I-1100000J0D01*
G01*
X119368750Y-24606250D02*
G75*
G03X119368750Y-24606250I-1100000J0D01*
G01*
X269387500Y-24606250D02*
G75*
G03X269387500Y-24606250I-1100000J0D01*
G01*
X269387500Y-127793750D02*
G75*
G03X269387500Y-127793750I-1100000J0D01*
G01*
X44756250Y-127793750D02*
G75*
G03X44756250Y-127793750I-1100000J0D01*
G01*
X44756250Y-24606250D02*
G75*
G03X44756250Y-24606250I-1100000J0D01*
G01*
X86052494Y-70499097D02*
X85075903Y-84464994D01*
X275431250Y-28575000D02*
X275431250Y-123825000D01*
X107842105Y-73240034D02*
X105893682Y-87103787D01*
X64148750Y-64148750D02*
X50150000Y-64150000D01*
X36512500Y-28575000D02*
X36512500Y-123825000D01*
X93978352Y-71291611D02*
X107842105Y-73240034D01*
X110493353Y-54375427D02*
X108544930Y-68239180D01*
X129357959Y-57026675D02*
X127409536Y-70890428D01*
X50150000Y-64150000D02*
X50150000Y-50151250D01*
X108544930Y-68239180D02*
X94681177Y-66290757D01*
X96629600Y-52427004D02*
X110493353Y-54375427D01*
X72086597Y-69522506D02*
X86052494Y-70499097D01*
X72438867Y-64484808D02*
X73415458Y-50518911D01*
X127409536Y-70890428D02*
X113545783Y-68942005D01*
X86404764Y-65461399D02*
X72438867Y-64484808D01*
X64150000Y-69200000D02*
X64150000Y-83200000D01*
X112842958Y-73942858D02*
X126706711Y-75891281D01*
X87381355Y-51495502D02*
X86404764Y-65461399D01*
X113545783Y-68942005D02*
X115494206Y-55078252D01*
X146274143Y-73541675D02*
X132410390Y-71593252D01*
X50150000Y-69200000D02*
X64150000Y-69200000D01*
X92029929Y-85155364D02*
X93978352Y-71291611D01*
X148222566Y-59677922D02*
X146274143Y-73541675D01*
X64150000Y-50151250D02*
X64148750Y-64148750D01*
X73415458Y-50518911D02*
X87381355Y-51495502D01*
X71110006Y-83488403D02*
X72086597Y-69522506D01*
X85075903Y-84464994D02*
X71110006Y-83488403D01*
X132410390Y-71593252D02*
X134358813Y-57729499D01*
X64150000Y-83200000D02*
X50150000Y-83200000D01*
X94681177Y-66290757D02*
X96629600Y-52427004D01*
X105893682Y-87103787D02*
X92029929Y-85155364D01*
X50150000Y-83200000D02*
X50150000Y-69200000D01*
X134358813Y-57729499D02*
X148222566Y-59677922D01*
X115494206Y-55078252D02*
X129357959Y-57026675D01*
X50150000Y-50151250D02*
X64150000Y-50151250D01*
X203326865Y-111823353D02*
X203187692Y-110833085D01*
X275431250Y-123825000D02*
G75*
G02X264318750Y-134937500I-11112500J0D01*
G01*
X196341968Y-111795189D02*
X196481142Y-112785457D01*
X203187692Y-110833085D02*
X196341968Y-111795189D01*
X204403285Y-111672072D02*
X206351709Y-125535827D01*
X171674925Y-116271743D02*
X172751347Y-116120462D01*
X132485853Y-114168090D02*
X132346679Y-115158358D01*
X139331576Y-115130193D02*
X132485853Y-114168090D01*
X115687936Y-111807297D02*
X108756059Y-110833086D01*
X264318750Y-17462500D02*
G75*
G02X275431250Y-28575000I0J-11112500D01*
G01*
X108616886Y-111823354D02*
X108756059Y-110833086D01*
X179683225Y-115146250D02*
X179544051Y-114155982D01*
X179544051Y-114155982D02*
X172612175Y-115130194D01*
X203230600Y-34888021D02*
X205179023Y-48751774D01*
X186314416Y-51403022D02*
X172450663Y-53351445D01*
X83875595Y-136146093D02*
X66675000Y-134937500D01*
X228068155Y-136146093D02*
X171474335Y-144099835D01*
X115548762Y-112797565D02*
X115687936Y-111807297D01*
X140469415Y-144099835D02*
X83875595Y-136146093D01*
X107540464Y-111672072D02*
X108616886Y-111823354D01*
X179683225Y-115146250D02*
X196481142Y-112785457D01*
X264318750Y-134937500D02*
X245268750Y-134937500D01*
X105592041Y-125535825D02*
X138320400Y-130135496D01*
X203326865Y-111823353D02*
X204403285Y-111672072D01*
X139192402Y-116120461D02*
X139331576Y-115130193D01*
X172751347Y-116120462D02*
X172612175Y-115130194D01*
X189366847Y-36836444D02*
X203230600Y-34888021D01*
X245268750Y-134937500D02*
X228068155Y-136146093D01*
X36512500Y-28575000D02*
G75*
G02X47625000Y-17462500I11112500J0D01*
G01*
X47625000Y-134937500D02*
G75*
G02X36512500Y-123825000I0J11112500D01*
G01*
X205179023Y-48751774D02*
X191315270Y-50700197D01*
X172450663Y-53351445D02*
X170502240Y-39487692D01*
X184365993Y-37539269D02*
X186314416Y-51403022D01*
X47625000Y-134937500D02*
X66675000Y-134937500D01*
X206351709Y-125535827D02*
X173623350Y-130135496D01*
X170502240Y-39487692D02*
X184365993Y-37539269D01*
X171474335Y-144099835D02*
X140469415Y-144099835D01*
X191315270Y-50700197D02*
X189366847Y-36836444D01*
X173623350Y-130135496D02*
X171674925Y-116271743D01*
X242162605Y-102491998D02*
X228196708Y-103468589D01*
X247793750Y-83200000D02*
X247793750Y-69201250D01*
X239504883Y-64484808D02*
X225538986Y-65461399D01*
X247793750Y-102250000D02*
X247793750Y-88251250D01*
X238528292Y-50518911D02*
X239504883Y-64484808D01*
X261792500Y-64148750D02*
X247793750Y-64150000D01*
X182887432Y-95458713D02*
X184835855Y-109322466D01*
X206752893Y-92104641D02*
X220616646Y-90156218D01*
X169023679Y-97407136D02*
X182887432Y-95458713D01*
X219913821Y-85155364D02*
X206050068Y-87103787D01*
X247793750Y-121300000D02*
X247793750Y-107301250D01*
X206050068Y-87103787D02*
X204101645Y-73240034D01*
X261793750Y-69201250D02*
X261792500Y-83198750D01*
X217965398Y-71291611D02*
X219913821Y-85155364D01*
X227697634Y-32179746D02*
X228674225Y-46145643D01*
X225216316Y-122884578D02*
X211352563Y-124833001D01*
X201049215Y-87806611D02*
X187185462Y-89755034D01*
X204101645Y-73240034D02*
X217965398Y-71291611D01*
X264318750Y-17462500D02*
X47625000Y-17462500D01*
X238268750Y-31101250D02*
X252268750Y-31101250D01*
X261792500Y-102248750D02*
X247793750Y-102248750D01*
X247793750Y-50151250D02*
X261793750Y-50151250D01*
X225538986Y-65461399D02*
X224562395Y-51495502D01*
X240833744Y-83488403D02*
X226867847Y-84464994D01*
X189836708Y-108619642D02*
X187888285Y-94755889D01*
X228674225Y-46145643D02*
X214708328Y-47122234D01*
X247793750Y-107301250D02*
X261793750Y-107301250D01*
X241186014Y-88526101D02*
X242162605Y-102491998D01*
X153586056Y-56002693D02*
X151637633Y-42138940D01*
X201752038Y-92807466D02*
X203700461Y-106671219D01*
X214708328Y-47122234D02*
X213731737Y-33156337D01*
X247793750Y-64150000D02*
X247793750Y-50151250D01*
X239857153Y-69522506D02*
X240833744Y-83488403D01*
X261793750Y-107301250D02*
X261792500Y-121298750D01*
X225891256Y-70499097D02*
X239857153Y-69522506D01*
X223267893Y-109020825D02*
X225216316Y-122884578D01*
X247793750Y-88251250D02*
X261793750Y-88251250D01*
X252267500Y-45098750D02*
X238268750Y-45098750D01*
X209404140Y-110969248D02*
X223267893Y-109020825D01*
X211352563Y-124833001D02*
X209404140Y-110969248D01*
X222565069Y-104019971D02*
X208701316Y-105968394D01*
X115548762Y-112797565D02*
X132346679Y-115158358D01*
X247793750Y-69201250D02*
X261793750Y-69201250D01*
X261792500Y-83198750D02*
X247793750Y-83198750D01*
X213731737Y-33156337D02*
X227697634Y-32179746D01*
X226867847Y-84464994D02*
X225891256Y-70499097D01*
X224562395Y-51495502D02*
X238528292Y-50518911D01*
X261792500Y-121298750D02*
X247793750Y-121298750D01*
X227220117Y-89502692D02*
X241186014Y-88526101D01*
X220616646Y-90156218D02*
X222565069Y-104019971D01*
X228196708Y-103468589D02*
X227220117Y-89502692D01*
X167449809Y-54054270D02*
X153586056Y-56002693D01*
X203700461Y-106671219D02*
X189836708Y-108619642D01*
X187888285Y-94755889D02*
X201752038Y-92807466D01*
X184835855Y-109322466D02*
X170972102Y-111270889D01*
X252268750Y-31101250D02*
X252267500Y-45098750D01*
X261793750Y-88251250D02*
X261792500Y-102248750D01*
X151637633Y-42138940D02*
X165501386Y-40190517D01*
X208701316Y-105968394D02*
X206752893Y-92104641D01*
X165501386Y-40190517D02*
X167449809Y-54054270D01*
X170972102Y-111270889D02*
X169023679Y-97407136D01*
X238268750Y-45100000D02*
X238268750Y-31101250D01*
X261793750Y-50151250D02*
X261792500Y-64148750D01*
X142920071Y-97407136D02*
X140971648Y-111270889D01*
X108243289Y-106671219D02*
X110191712Y-92807466D01*
X187185462Y-89755034D02*
X185237039Y-75891281D01*
X131707566Y-76594106D02*
X145571319Y-78542529D01*
X110894535Y-87806611D02*
X112842958Y-73942858D01*
X143622896Y-92406282D02*
X129759143Y-90457859D01*
X88675857Y-109020825D02*
X102539610Y-110969248D01*
X140971648Y-111270889D02*
X127107895Y-109322466D01*
X110191712Y-92807466D02*
X124055465Y-94755889D01*
X129759143Y-90457859D02*
X131707566Y-76594106D01*
X124758288Y-89755034D02*
X110894535Y-87806611D01*
X126706711Y-75891281D02*
X124758288Y-89755034D01*
X203398820Y-68239180D02*
X201450397Y-54375427D01*
X217262573Y-66290757D02*
X203398820Y-68239180D01*
X180236184Y-76594106D02*
X182184607Y-90457859D01*
X184534214Y-70890428D02*
X182585791Y-57026675D01*
X196449544Y-55078252D02*
X198397967Y-68942005D01*
X84723633Y-89502692D02*
X83747042Y-103468589D01*
X140268823Y-116271743D02*
X138320400Y-130135496D01*
X103242434Y-105968394D02*
X89378681Y-104019971D01*
X100591187Y-124833001D02*
X86727434Y-122884578D01*
X199100792Y-73942858D02*
X201049215Y-87806611D01*
X201450397Y-54375427D02*
X215314150Y-52427004D01*
X50150000Y-121300000D02*
X50150000Y-107300000D01*
X70757736Y-88526101D02*
X84723633Y-89502692D01*
X127107895Y-109322466D02*
X129056318Y-95458713D01*
X129056318Y-95458713D02*
X142920071Y-97407136D01*
X124055465Y-94755889D02*
X122107042Y-108619642D01*
X182184607Y-90457859D02*
X168320854Y-92406282D01*
X177584937Y-57729499D02*
X179533360Y-71593252D01*
X182585791Y-57026675D02*
X196449544Y-55078252D01*
X64150000Y-88250000D02*
X64150000Y-102250000D01*
X198397967Y-68942005D02*
X184534214Y-70890428D01*
X50150000Y-88250000D02*
X64150000Y-88250000D01*
X69781145Y-102491998D02*
X70757736Y-88526101D01*
X102539610Y-110969248D02*
X100591187Y-124833001D01*
X165669607Y-73541675D02*
X163721184Y-59677922D01*
X215314150Y-52427004D02*
X217262573Y-66290757D01*
X50150000Y-107300000D02*
X64150000Y-107300000D01*
X185237039Y-75891281D02*
X199100792Y-73942858D01*
X64150000Y-102250000D02*
X50150000Y-102250000D01*
X139192402Y-116120461D02*
X140268823Y-116271743D01*
X122107042Y-108619642D02*
X108243289Y-106671219D01*
X64150000Y-121300000D02*
X50150000Y-121300000D01*
X163721184Y-59677922D02*
X177584937Y-57729499D01*
X168320854Y-92406282D02*
X166372431Y-78542529D01*
X89378681Y-104019971D02*
X91327104Y-90156218D01*
X86727434Y-122884578D02*
X88675857Y-109020825D01*
X50150000Y-102250000D02*
X50150000Y-88250000D01*
X179533360Y-71593252D02*
X165669607Y-73541675D01*
X83747042Y-103468589D02*
X69781145Y-102491998D01*
X166372431Y-78542529D02*
X180236184Y-76594106D01*
X105190857Y-92104641D02*
X103242434Y-105968394D01*
X91327104Y-90156218D02*
X105190857Y-92104641D01*
X105592041Y-125535825D02*
X107540464Y-111672072D01*
X145571319Y-78542529D02*
X143622896Y-92406282D01*
X64150000Y-107300000D02*
X64150000Y-121300000D01*
M02*
