G04 #@! TF.GenerationSoftware,KiCad,Pcbnew,(5.1.4)-1*
G04 #@! TF.CreationDate,2021-09-16T18:12:57-10:00*
G04 #@! TF.ProjectId,oya38split,6f796133-3873-4706-9c69-742e6b696361,rev?*
G04 #@! TF.SameCoordinates,Original*
G04 #@! TF.FileFunction,Copper,L2,Bot*
G04 #@! TF.FilePolarity,Positive*
%FSLAX46Y46*%
G04 Gerber Fmt 4.6, Leading zero omitted, Abs format (unit mm)*
G04 Created by KiCad (PCBNEW (5.1.4)-1) date 2021-09-16 18:12:57*
%MOMM*%
%LPD*%
G04 APERTURE LIST*
%ADD10C,2.250000*%
%ADD11C,1.752600*%
%ADD12R,1.752600X1.752600*%
%ADD13C,0.250000*%
G04 APERTURE END LIST*
D10*
X195223341Y-114901098D03*
X201865043Y-116532630D03*
X54610000Y-52070000D03*
X60960000Y-54610000D03*
X185791038Y-116226722D03*
X192432740Y-117858254D03*
X127056853Y-118918753D03*
X121122150Y-115519723D03*
X242728750Y-33020000D03*
X249078750Y-35560000D03*
X224826519Y-36851405D03*
X218314805Y-34760546D03*
X200692357Y-39748579D03*
X194050655Y-38117047D03*
X175186048Y-40768295D03*
X181827750Y-42399827D03*
X156321441Y-43419543D03*
X162963143Y-45051075D03*
X252253750Y-109220000D03*
X258603750Y-111760000D03*
X214087948Y-112249851D03*
X220729650Y-113881383D03*
X176358735Y-117552346D03*
X183000437Y-119183878D03*
X130554453Y-116845347D03*
X136489156Y-120244377D03*
X111689847Y-114194099D03*
X117624550Y-117593129D03*
X92825240Y-111542852D03*
X98759943Y-114941882D03*
X54610000Y-109220000D03*
X60960000Y-111760000D03*
X252253750Y-90170000D03*
X258603750Y-92710000D03*
X231803185Y-91106901D03*
X238314899Y-93197760D03*
X211436701Y-93385244D03*
X218078403Y-95016776D03*
X192572093Y-96036492D03*
X199213795Y-97668024D03*
X173707487Y-98687739D03*
X180349189Y-100319271D03*
X133205701Y-97980740D03*
X139140404Y-101379770D03*
X114341095Y-95329493D03*
X120275798Y-98728523D03*
X95476487Y-92678245D03*
X101411190Y-96077275D03*
X75072939Y-90752538D03*
X81230289Y-93729304D03*
X54610000Y-90170000D03*
X60960000Y-92710000D03*
X252253750Y-71120000D03*
X258603750Y-73660000D03*
X230474324Y-72103306D03*
X236986038Y-74194165D03*
X208785453Y-74520637D03*
X215427155Y-76152169D03*
X189920847Y-77171884D03*
X196562549Y-78803416D03*
X171056239Y-79823132D03*
X177697941Y-81454664D03*
X135856949Y-79116133D03*
X141791652Y-82515163D03*
X116992341Y-76464885D03*
X122927044Y-79863915D03*
X98127735Y-73813638D03*
X104062438Y-77212668D03*
X82559150Y-74725709D03*
X76401800Y-71748943D03*
X54610000Y-71120000D03*
X60960000Y-73660000D03*
X252253750Y-52070000D03*
X258603750Y-54610000D03*
X229145463Y-53099711D03*
X235657177Y-55190570D03*
X206134206Y-55656030D03*
X212775908Y-57287562D03*
X187269599Y-58307278D03*
X193911301Y-59938810D03*
X168404992Y-60958526D03*
X175046694Y-62590058D03*
X138508196Y-60251526D03*
X144442899Y-63650556D03*
X125578292Y-60999309D03*
X119643589Y-57600279D03*
X100778983Y-54949031D03*
X106713686Y-58348061D03*
X77730661Y-52745348D03*
X83888011Y-55722114D03*
D11*
X53498750Y-45720000D03*
X81438750Y-30480000D03*
X56038750Y-45720000D03*
X58578750Y-45720000D03*
X61118750Y-45720000D03*
X63658750Y-45720000D03*
X66198750Y-45720000D03*
X68738750Y-45720000D03*
X71278750Y-45720000D03*
X73818750Y-45720000D03*
X76358750Y-45720000D03*
X78898750Y-45720000D03*
X81438750Y-45720000D03*
X78898750Y-30480000D03*
X76358750Y-30480000D03*
X73818750Y-30480000D03*
X71278750Y-30480000D03*
X68738750Y-30480000D03*
X66198750Y-30480000D03*
X63658750Y-30480000D03*
X61118750Y-30480000D03*
X58578750Y-30480000D03*
X56038750Y-30480000D03*
D12*
X53498750Y-30480000D03*
D13*
X60960000Y-54610000D02*
X60960000Y-111760000D01*
X67468750Y-54610000D02*
X76358750Y-45720000D01*
X60960000Y-54610000D02*
X67468750Y-54610000D01*
X81230289Y-76054570D02*
X81230289Y-93729304D01*
X82559150Y-74725709D02*
X81230289Y-76054570D01*
X82559150Y-74725709D02*
X82559150Y-57050975D01*
X82559150Y-57050975D02*
X83888011Y-55722114D01*
X83888011Y-55722114D02*
X83888011Y-50709261D01*
X83888011Y-50709261D02*
X78898750Y-45720000D01*
X100012500Y-97475965D02*
X100012500Y-113689325D01*
X101411190Y-96077275D02*
X100012500Y-97475965D01*
X100012500Y-113689325D02*
X99884942Y-113816883D01*
X99884942Y-113816883D02*
X98759943Y-114941882D01*
X102937439Y-78337667D02*
X102937439Y-94551026D01*
X104062438Y-77212668D02*
X102937439Y-78337667D01*
X102937439Y-94551026D02*
X102536189Y-94952276D01*
X102536189Y-94952276D02*
X101411190Y-96077275D01*
X105568750Y-59492997D02*
X105568750Y-75706356D01*
X106713686Y-58348061D02*
X105568750Y-59492997D01*
X105568750Y-75706356D02*
X105187437Y-76087669D01*
X105187437Y-76087669D02*
X104062438Y-77212668D01*
X106713686Y-58348061D02*
X94085625Y-45720000D01*
X94085625Y-45720000D02*
X81438750Y-45720000D01*
X119150799Y-99853522D02*
X119150799Y-116066880D01*
X120275798Y-98728523D02*
X119150799Y-99853522D01*
X119150799Y-116066880D02*
X118749549Y-116468130D01*
X118749549Y-116468130D02*
X117624550Y-117593129D01*
X121802045Y-80988914D02*
X121802045Y-97202276D01*
X122927044Y-79863915D02*
X121802045Y-80988914D01*
X121802045Y-97202276D02*
X121400797Y-97603524D01*
X121400797Y-97603524D02*
X120275798Y-98728523D01*
X124453293Y-62124308D02*
X124453293Y-78337666D01*
X125578292Y-60999309D02*
X124453293Y-62124308D01*
X124453293Y-78337666D02*
X124052043Y-78738916D01*
X124052043Y-78738916D02*
X122927044Y-79863915D01*
X82947375Y-33931356D02*
X84890106Y-31988625D01*
X69650097Y-33931347D02*
X79930116Y-33931347D01*
X79930116Y-33931347D02*
X79930125Y-33931356D01*
X66198750Y-30480000D02*
X69650097Y-33931347D01*
X79930125Y-33931356D02*
X82947375Y-33931356D01*
X85253648Y-31625075D02*
X125578292Y-31625075D01*
X84890106Y-31988617D02*
X85253648Y-31625075D01*
X84890106Y-31988625D02*
X84890106Y-31988617D01*
X125578292Y-31625075D02*
X125578292Y-60999309D01*
X142916651Y-81390164D02*
X141791652Y-82515163D01*
X143317900Y-80988915D02*
X142916651Y-81390164D01*
X143317900Y-64775555D02*
X143317900Y-80988915D01*
X144442899Y-63650556D02*
X143317900Y-64775555D01*
X135163532Y-118918753D02*
X127056853Y-118918753D01*
X136489156Y-120244377D02*
X135163532Y-118918753D01*
X140666653Y-83640162D02*
X140666653Y-99853521D01*
X141791652Y-82515163D02*
X140666653Y-83640162D01*
X140666653Y-99853521D02*
X140265403Y-100254771D01*
X140265403Y-100254771D02*
X139140404Y-101379770D01*
X138188586Y-118544947D02*
X138188586Y-102331588D01*
X136489156Y-120244377D02*
X138188586Y-118544947D01*
X138188586Y-102331588D02*
X139140404Y-101379770D01*
X144442899Y-62059566D02*
X144442899Y-63650556D01*
X144442899Y-31175064D02*
X144442899Y-62059566D01*
X85067249Y-31175064D02*
X144442899Y-31175064D01*
X82760977Y-33481336D02*
X85067249Y-31175064D01*
X71740086Y-33481336D02*
X82760977Y-33481336D01*
X68738750Y-30480000D02*
X71740086Y-33481336D01*
X175046694Y-78803417D02*
X177697941Y-81454664D01*
X175046694Y-62590057D02*
X175046694Y-78803417D01*
X177697941Y-97668023D02*
X180349189Y-100319271D01*
X177697941Y-81454664D02*
X177697941Y-97668023D01*
X180349189Y-116532630D02*
X183000437Y-119183878D01*
X180349189Y-100319271D02*
X180349189Y-116532630D01*
X184326061Y-117858254D02*
X192432740Y-117858254D01*
X183000437Y-119183878D02*
X184326061Y-117858254D01*
X162963143Y-50506507D02*
X162963143Y-45051075D01*
X175046694Y-62590058D02*
X162963143Y-50506507D01*
X72155049Y-31356299D02*
X71278750Y-30480000D01*
X73830075Y-33031325D02*
X72155049Y-31356299D01*
X82574576Y-33031325D02*
X73830075Y-33031325D01*
X84880848Y-30725053D02*
X82574576Y-33031325D01*
X162963143Y-45051075D02*
X162963143Y-30725053D01*
X162963143Y-30725053D02*
X84880848Y-30725053D01*
X193911301Y-76152168D02*
X196562549Y-78803416D01*
X193911301Y-59938810D02*
X193911301Y-76152168D01*
X196562549Y-95016778D02*
X199213795Y-97668024D01*
X196562549Y-78803416D02*
X196562549Y-95016778D01*
X202990042Y-115407631D02*
X201865043Y-116532630D01*
X202990042Y-110975336D02*
X202990042Y-115407631D01*
X199213795Y-107199089D02*
X202990042Y-110975336D01*
X199213795Y-97668024D02*
X199213795Y-107199089D01*
X181827750Y-47855259D02*
X181827750Y-42399827D01*
X193911301Y-59938810D02*
X181827750Y-47855259D01*
X75920064Y-32581314D02*
X73818750Y-30480000D01*
X82388176Y-32581314D02*
X75920064Y-32581314D01*
X84694448Y-30275042D02*
X82388176Y-32581314D01*
X181827750Y-42399827D02*
X181827750Y-30275042D01*
X181827750Y-30275042D02*
X84694448Y-30275042D01*
X212775907Y-73500921D02*
X215427155Y-76152169D01*
X212775907Y-57287562D02*
X212775907Y-73500921D01*
X215427155Y-92365528D02*
X218078403Y-95016776D01*
X215427155Y-76152169D02*
X215427155Y-92365528D01*
X218078403Y-111230136D02*
X220729650Y-113881383D01*
X218078403Y-95016776D02*
X218078403Y-111230136D01*
X200692357Y-45204011D02*
X200692357Y-39748579D01*
X212775908Y-57287562D02*
X200692357Y-45204011D01*
X78010053Y-32131303D02*
X76358750Y-30480000D01*
X82201776Y-32131303D02*
X78010053Y-32131303D01*
X84508048Y-29825031D02*
X82201776Y-32131303D01*
X200692357Y-39748579D02*
X200692357Y-29825031D01*
X200692357Y-29825031D02*
X84508048Y-29825031D01*
X235657177Y-72865304D02*
X236986038Y-74194165D01*
X235657177Y-55190570D02*
X235657177Y-72865304D01*
X236986038Y-91868899D02*
X238314899Y-93197760D01*
X236986038Y-74194165D02*
X236986038Y-91868899D01*
X224826519Y-44359912D02*
X224826519Y-36851405D01*
X235657177Y-55190570D02*
X224826519Y-44359912D01*
X80100051Y-31681301D02*
X78898750Y-30480000D01*
X82015367Y-31681301D02*
X80100051Y-31681301D01*
X84321647Y-29375021D02*
X82015367Y-31681301D01*
X224826519Y-36851405D02*
X224826519Y-29375021D01*
X224826519Y-29375021D02*
X84321647Y-29375021D01*
X258603750Y-54610000D02*
X258603750Y-111760000D01*
X257478751Y-53485001D02*
X258603750Y-54610000D01*
X249078750Y-35560000D02*
X249078750Y-45085000D01*
X249078750Y-45085000D02*
X257478751Y-53485001D01*
X82315049Y-29603701D02*
X81438750Y-30480000D01*
X82993740Y-28925010D02*
X82315049Y-29603701D01*
X249078750Y-35560000D02*
X249078750Y-28925010D01*
X249078750Y-28925010D02*
X82993740Y-28925010D01*
M02*
